<?xml version="1.0" standalone="no"?>
<!DOCTYPE svg PUBLIC "-//W3C//DTD SVG 20010904//EN"
 "http://www.w3.org/TR/2001/REC-SVG-20010904/DTD/svg10.dtd">
<svg version="1.0" xmlns="http://www.w3.org/2000/svg"
 width="673.000000pt" height="673.000000pt" viewBox="0 0 673.000000 673.000000"
 preserveAspectRatio="xMidYMid meet">

<g transform="translate(0.000000,673.000000) scale(0.100000,-0.100000)"
fill="#000000" stroke="none">
<path d="M3140 6164 c-822 -74 -1542 -472 -2025 -1119 -278 -373 -453 -794
-526 -1266 -33 -209 -33 -599 0 -808 115 -746 501 -1391 1095 -1835 374 -279
794 -454 1267 -527 209 -33 599 -33 808 0 746 115 1391 501 1835 1095 279 374
454 794 527 1267 33 209 33 599 0 808 -116 747 -500 1391 -1096 1836 -372 277
-798 455 -1261 525 -134 21 -505 35 -624 24z m326 -1275 c93 -13 212 -54 291
-100 32 -19 101 -77 153 -129 82 -81 103 -109 142 -190 102 -208 114 -412 38
-623 -41 -112 -93 -191 -185 -282 -156 -155 -326 -224 -551 -225 -128 0 -227
24 -354 86 -80 40 -108 61 -185 138 -162 163 -234 333 -235 549 0 322 186 602
484 726 128 53 261 70 402 50z m184 -1733 c274 -35 461 -97 636 -211 139 -91
243 -205 304 -338 55 -118 60 -155 60 -469 l0 -288 -1295 0 -1295 0 0 288 c0
319 4 352 64 477 119 250 388 433 751 511 202 44 556 57 775 30z"/>
</g>
</svg>
